# xmcd
#
# Track frame offsets: 
#        150
#        17524
#        30688
#        39809
#        53583
#        68912
#        84227
#        96243
#        121368
#        136576
#        145271
#        159887
#        179672
#        188376
#        202645
#
# Disc length: 2847 seconds
#
# Revision: 0
# Processed by: cddbd v1.5.2PL0 Copyright (c) Steve Scherf et al.
# Submitted via: ExactAudioCopyFreeDBPlugin 1.0
#
DISCID=ae0b1d0f
DTITLE=Snoop Dogg - Gangsta Rhythms
DYEAR=2009
DGENRE=Hip-Hop
TTITLE0=We Gonna Ride Tonight
TTITLE1=For The Trucks
TTITLE2=Lose Ya Life
TTITLE3=Sometimes I Feel I Need To Get Away
TTITLE4=Say Bitch
TTITLE5=The Way I Am
TTITLE6=You Must Learn
TTITLE7=Young World
TTITLE8=Get That Cream
TTITLE9=Theres Way Too Much At Stake
TTITLE10=Smokin
TTITLE11=Exchange Hoes
TTITLE12=You Can...
TTITLE13=My Cousin
TTITLE14=Get Up And Party
EXTD=
EXTT0=
EXTT1=
EXTT2=
EXTT3=
EXTT4=
EXTT5=
EXTT6=
EXTT7=
EXTT8=
EXTT9=
EXTT10=
EXTT11=
EXTT12=
EXTT13=
EXTT14=
PLAYORDER=
